<svg xmlns="http://www.w3.org/2000/svg" viewBox="0 0 57.48 57.48"><defs><style>.cls-1{fill:none;stroke:#fff;stroke-miterlimit:10;stroke-width:5px;}.cls-2{fill:#fff;}</style></defs><title>资源 1</title><g id="图层_2" data-name="图层 2"><g id="图层_1-2" data-name="图层 1"><circle class="cls-1" cx="28.74" cy="28.74" r="26.24"/><path class="cls-2" d="M38.29,6.26S37.29,6,36,7.44,32.82,8.73,32,10.51s.14,4.15.14,4.49.22,3.46.22,3.46-1.78,1.34-2.33.11a7.68,7.68,0,0,0-1.33-2.44c-.45-.33-1.56-1.67-2.56-.67s-.78,2.1.11,4.34-.44,3,.11,4.09,1.28,2.05-.28,3-3.33-1.66-3.33-1.66c-1.67-2-1.83-2.37-3.61-2.6s-6.67,1.56-6.78-.77a38.84,38.84,0,0,0-.78-5.21,12.44,12.44,0,0,0-1.5-3.6,1.29,1.29,0,0,1,0-1.18L11.5,9a1.13,1.13,0,0,1,.35-.43,36.47,36.47,0,0,1,4.66-3.27A11.67,11.67,0,0,1,20.4,3.78C22.62,3.33,24,2.4,26,2.51c1.65.09,3.36,0,3.9,0a1.08,1.08,0,0,1,.36,0c.65.17,3,.76,4.32,1a14.09,14.09,0,0,0,3.42.1,1.27,1.27,0,0,1,1.24.71h0a1.28,1.28,0,0,1-.56,1.68Z"/><path class="cls-2" d="M25.74,42.44a6.71,6.71,0,0,0,1.92-4c.4-3.41.9-7.54,3.34-9.79s7.33-2,7.55,1-1.66,5,1.11,5.31,3.56-2.44,6.11.78,1.32,4.13,2.56,3.89c2.35-.46,1.68,1.6,1.68,1.6s-6.9,7.84-8.57,8.62-4.89,2-5.89,2.44-3.89,1.34-3.89,1.34-3.22-.23-3.44-.56-1.66-.47.34-3,1.76-3.52.33-4c-3.5-1.09-5.34-.67-3.56-3.22Z"/></g></g></svg>